<svg width="8" height="11" viewBox="0 0 8 11" fill="none" xmlns="http://www.w3.org/2000/svg">
<path fill-rule="evenodd" clip-rule="evenodd" d="M1.2072 10.0859L3.7072 7.58586L6.2072 10.0859C6.48334 10.362 6.93106 10.362 7.2072 10.0859C7.48334 9.80972 7.48334 9.362 7.2072 9.08586L4.41431 6.29297C4.02378 5.90245 3.39062 5.90244 3.00009 6.29297L0.207199 9.08586C-0.0689436 9.362 -0.0689435 9.80972 0.207199 10.0859C0.483342 10.362 0.931057 10.362 1.2072 10.0859ZM1.2072 4.08586L3.7072 1.58586L6.2072 4.08586C6.48334 4.362 6.93106 4.362 7.2072 4.08586C7.48334 3.80972 7.48334 3.362 7.2072 3.08586L4.41431 0.292969C4.02378 -0.0975549 3.39062 -0.0975558 3.00009 0.292968L0.207199 3.08586C-0.0689432 3.362 -0.0689436 3.80972 0.207199 4.08586C0.483342 4.36201 0.931057 4.362 1.2072 4.08586Z" fill="#41F6D7"/>
</svg>
